<mxfile host="app.diagrams.net" modified="2020-12-01T00:20:20.125Z" agent="5.0 (X11; Linux x86_64) AppleWebKit/537.36 (KHTML, like Gecko) Chrome/86.0.4240.111 Safari/537.36" etag="SgAlEijCovqaK6oElHir" version="13.10.4" type="github">
  <diagram id="C5RBs43oDa-KdzZeNtuy" name="Page-1">
    <mxGraphModel dx="1094" dy="687" grid="1" gridSize="10" guides="1" tooltips="1" connect="1" arrows="1" fold="1" page="1" pageScale="1" pageWidth="827" pageHeight="1169" math="0" shadow="0">
      <root>
        <mxCell id="WIyWlLk6GJQsqaUBKTNV-0" />
        <mxCell id="WIyWlLk6GJQsqaUBKTNV-1" parent="WIyWlLk6GJQsqaUBKTNV-0" />
        <mxCell id="aw5jR27id8St01-3wU27-0" value="повар" style="ellipse;whiteSpace=wrap;html=1;aspect=fixed;" vertex="1" parent="WIyWlLk6GJQsqaUBKTNV-1">
          <mxGeometry x="140" y="240" width="80" height="80" as="geometry" />
        </mxCell>
        <mxCell id="aw5jR27id8St01-3wU27-7" style="edgeStyle=orthogonalEdgeStyle;rounded=0;orthogonalLoop=1;jettySize=auto;html=1;entryX=1;entryY=0.5;entryDx=0;entryDy=0;" edge="1" parent="WIyWlLk6GJQsqaUBKTNV-1" source="aw5jR27id8St01-3wU27-1" target="aw5jR27id8St01-3wU27-0">
          <mxGeometry relative="1" as="geometry">
            <mxPoint x="380" y="360" as="targetPoint" />
            <mxPoint x="370" y="340" as="sourcePoint" />
          </mxGeometry>
        </mxCell>
        <mxCell id="aw5jR27id8St01-3wU27-1" value="официант" style="ellipse;whiteSpace=wrap;html=1;aspect=fixed;" vertex="1" parent="WIyWlLk6GJQsqaUBKTNV-1">
          <mxGeometry x="420" y="240" width="80" height="80" as="geometry" />
        </mxCell>
        <mxCell id="aw5jR27id8St01-3wU27-2" value="пом. повара" style="ellipse;whiteSpace=wrap;html=1;aspect=fixed;" vertex="1" parent="WIyWlLk6GJQsqaUBKTNV-1">
          <mxGeometry x="140" y="460" width="80" height="80" as="geometry" />
        </mxCell>
        <mxCell id="aw5jR27id8St01-3wU27-3" value="официант" style="ellipse;whiteSpace=wrap;html=1;aspect=fixed;" vertex="1" parent="WIyWlLk6GJQsqaUBKTNV-1">
          <mxGeometry x="420" y="460" width="80" height="80" as="geometry" />
        </mxCell>
        <mxCell id="aw5jR27id8St01-3wU27-5" value="" style="endArrow=classic;html=1;exitX=0.5;exitY=1;exitDx=0;exitDy=0;entryX=0.5;entryY=0;entryDx=0;entryDy=0;" edge="1" parent="WIyWlLk6GJQsqaUBKTNV-1" source="aw5jR27id8St01-3wU27-0" target="aw5jR27id8St01-3wU27-2">
          <mxGeometry width="50" height="50" relative="1" as="geometry">
            <mxPoint x="380" y="460" as="sourcePoint" />
            <mxPoint x="140" y="450" as="targetPoint" />
          </mxGeometry>
        </mxCell>
        <mxCell id="aw5jR27id8St01-3wU27-6" value="" style="endArrow=classic;html=1;exitX=0.5;exitY=0;exitDx=0;exitDy=0;entryX=1;entryY=1;entryDx=0;entryDy=0;" edge="1" parent="WIyWlLk6GJQsqaUBKTNV-1" source="aw5jR27id8St01-3wU27-3" target="aw5jR27id8St01-3wU27-0">
          <mxGeometry width="50" height="50" relative="1" as="geometry">
            <mxPoint x="380" y="460" as="sourcePoint" />
            <mxPoint x="430" y="410" as="targetPoint" />
          </mxGeometry>
        </mxCell>
        <mxCell id="aw5jR27id8St01-3wU27-8" value="официант обслуживает клиентов&amp;nbsp;" style="text;html=1;align=center;verticalAlign=middle;resizable=0;points=[];autosize=1;" vertex="1" parent="WIyWlLk6GJQsqaUBKTNV-1">
          <mxGeometry x="510" y="260" width="200" height="20" as="geometry" />
        </mxCell>
        <mxCell id="aw5jR27id8St01-3wU27-9" value="официант обслуживает клиентов&amp;nbsp;" style="text;html=1;align=center;verticalAlign=middle;resizable=0;points=[];autosize=1;" vertex="1" parent="WIyWlLk6GJQsqaUBKTNV-1">
          <mxGeometry x="510" y="490" width="200" height="20" as="geometry" />
        </mxCell>
        <mxCell id="aw5jR27id8St01-3wU27-10" value="Повар готовить еду и выдает официантам&amp;nbsp;" style="text;html=1;align=center;verticalAlign=middle;resizable=0;points=[];autosize=1;" vertex="1" parent="WIyWlLk6GJQsqaUBKTNV-1">
          <mxGeometry x="45" y="170" width="250" height="20" as="geometry" />
        </mxCell>
        <mxCell id="aw5jR27id8St01-3wU27-11" value="помогает повару и моет посуду&amp;nbsp;" style="text;html=1;align=center;verticalAlign=middle;resizable=0;points=[];autosize=1;" vertex="1" parent="WIyWlLk6GJQsqaUBKTNV-1">
          <mxGeometry x="85" y="560" width="190" height="20" as="geometry" />
        </mxCell>
      </root>
    </mxGraphModel>
  </diagram>
</mxfile>
